<?xml version="1.0" encoding="UTF-8" standalone="no"?>
<svg
   xmlns:dc="http://purl.org/dc/elements/1.1/"
   xmlns:cc="http://creativecommons.org/ns#"
   xmlns:rdf="http://www.w3.org/1999/02/22-rdf-syntax-ns#"
   xmlns:svg="http://www.w3.org/2000/svg"
   xmlns="http://www.w3.org/2000/svg"
   xmlns:sodipodi="http://sodipodi.sourceforge.net/DTD/sodipodi-0.dtd"
   xmlns:inkscape="http://www.inkscape.org/namespaces/inkscape"
   inkscape:version="1.0 (4035a4fb49, 2020-05-01)"
   inkscape:export-ydpi="15.36"
   inkscape:export-xdpi="15.36"
   inkscape:export-filename="C:\Users\Got\Desktop\ripple\16.png"
   height="100"
   width="100"
   sodipodi:docname="icone.svg"
   id="svg1035"
   xml:space="preserve"
   enable-background="new 0 0 100 100"
   viewBox="0 0 100 100"
   y="0px"
   x="0px"
   version="1.1"><metadata
     id="metadata1041"><rdf:RDF><cc:Work
         rdf:about=""><dc:format>image/svg+xml</dc:format><dc:type
           rdf:resource="http://purl.org/dc/dcmitype/StillImage" /><dc:title></dc:title></cc:Work></rdf:RDF></metadata><defs
     id="defs1039" /><sodipodi:namedview
     inkscape:current-layer="svg1035"
     inkscape:window-maximized="0"
     inkscape:window-y="0"
     inkscape:window-x="-7"
     inkscape:cy="52.579365"
     inkscape:cx="22.904266"
     inkscape:zoom="8.064"
     showgrid="false"
     id="namedview1037"
     inkscape:window-height="1368"
     inkscape:window-width="1278"
     inkscape:pageshadow="2"
     inkscape:pageopacity="0"
     guidetolerance="10"
     gridtolerance="10"
     objecttolerance="10"
     borderopacity="1"
     bordercolor="#666666"
     pagecolor="#ffffff" /><g
     id="g1029"><path
       style="fill:#d45500"
       id="path1003"
       d="m 61,84.9 c -2.2,0.1 -4.4,0.3 -6.6,0.5 -0.7,0.1 -1.3,0.1 -1.9,0.3 -5.6,2.1 -11.2,1.5 -16.9,0.7 C 30.8,85.7 26.2,84.3 21.9,82 21,81.6 20,81.3 19,80.9 16.8,80 15.4,78.2 13.8,76.6 11,74 8.7,70.9 7.1,67.5 5.8,64.7 5.2,61.8 5.6,58.8 5.7,57.7 5.7,56.6 5.8,55.5 6.4,50.8 6,46 7.7,41.4 c 1,-2.9 2.7,-5.3 3.8,-8.1 0.1,-0.1 0.2,-0.2 0.3,-0.4 2,-2.4 3.7,-5 6,-7 3,-2.5 5.6,-5.5 9.3,-7.3 2.5,-1.2 4.7,-2.9 7.1,-4.3 2.2,-1.2 4.4,-2.4 6.7,-3.2 1.8,-0.6 3.8,-0.6 5.6,-0.5 4.4,0.2 8.7,1.2 12.9,2.3 2.9,0.7 5.3,2.3 7.6,3.9 4.6,3.3 8.6,7.3 12.2,11.6 1.5,1.8 3,3.6 4.6,5.3 2,2.1 2.6,4.8 3.2,7.4 0.6,2.8 0.9,5.8 1.3,8.6 0.5,3.8 0.4,7.6 0.1,11.4 -0.2,2.2 -2.3,6.5 -3.8,8.3 -0.5,0.5 -0.9,1.2 -1.2,1.8 -1.2,2.4 -2.9,4.4 -4.7,6.3 -0.8,0.8 -1.9,1.4 -2.8,2 -3.3,2.1 -6.7,4 -10.5,5 C 64,85 62.5,84.9 61,85.1 61,85 61,85 61,84.9 Z M 40.4,84.8 c 0.4,0 0.9,0 1.3,0 3.8,0.1 7.4,-0.4 10.9,-2 1.3,-0.6 2.8,-0.8 4.3,-0.8 6.1,-0.2 11.9,-1.6 17.1,-4.9 2.2,-1.4 4.5,-2.8 6,-5 1.6,-2.3 3.2,-4.6 4.7,-6.9 1.1,-1.7 1.6,-3.6 1.8,-5.7 0.3,-2.9 -0.4,-5.7 -0.3,-8.5 0.1,-2.2 0.1,-4.4 -0.9,-6.5 -0.6,-1.3 -1.1,-2.7 -1.5,-4.1 -0.8,-2.7 -2.5,-4.7 -4.5,-6.6 -2.9,-2.8 -5.8,-5.5 -8.6,-8.4 -3,-3.1 -6.9,-4.9 -10.2,-7.5 -4.7,-1.5 -9.4,-3.4 -14.5,-3 -3.3,0.3 -6.5,0.8 -9.3,2.8 -2,1.4 -4.4,2.3 -6.5,3.7 -2.2,1.4 -4.7,2.3 -6.6,4.3 -1.4,1.4 -3.1,2.5 -4.5,3.8 -0.9,0.8 -1.7,1.8 -2.4,2.8 -1.5,2.1 -2.9,4.1 -4.2,6.3 -1.9,3.3 -3.7,6.6 -4,10.6 -0.2,2.7 -0.5,5.4 -1,8 -0.5,2.8 -0.1,5.3 1,7.9 3,7.7 7.6,13.8 15.7,16.6 0.1,0 0.1,0.1 0.2,0.1 5.1,2.4 10.4,3.5 16,3 z" /><path
       style="fill:#aa4400"
       id="path1005"
       d="m 7.2,76.5 c 1.7,0.8 2.6,1.6 3,2.9 0.7,1.9 2.2,3.1 3.8,4.1 5,3.3 10.4,5.3 16.2,6.4 3.6,0.7 7.2,1.4 10.9,1.6 2.6,0.2 5.2,-0.3 7.9,-0.5 2.1,-0.1 4.2,-0.1 6.4,-0.3 2.1,-0.2 4.2,-0.5 6.3,-0.8 1.1,-0.1 2.2,-0.4 3.3,-0.4 4.5,-0.1 8.7,-1 12.4,-3.7 1.9,-1.4 4.1,-2.6 6.1,-3.9 2.4,-1.6 3.8,-3.9 5,-6.5 C 90.8,70.5 91.2,65.3 92,60.1 92.5,57.4 91.9,54.7 92.1,52 92.4,48.4 92.2,44.7 91.9,41.1 91.6,37.5 90.2,34.4 88.3,31.6 85.9,28 83.4,24.5 80.5,21.3 78.3,18.8 75.4,16.9 72.8,14.8 67.3,10.3 60.8,8.5 53.9,8.1 51.2,7.9 48.5,7.5 45.8,7.5 42.7,7.4 39.5,7.4 36.4,7.7 c -1.5,0 -3,0.7 -4.4,1.3 -3.5,1.4 -7,2.6 -10.3,4.3 -1.8,0.9 -3.6,2.4 -4.9,4 -2.6,3.1 -5,6.5 -7.3,9.9 -1.3,2 -1.8,4.3 -1.9,6.7 0,0.8 0.1,1.8 -1,2.2 C 5,34.8 4.7,33.7 5.3,31.9 7,27 9.5,22.6 12.9,18.8 c 1.2,-1.4 2.2,-2.8 3.6,-4.1 2.7,-2.4 5.7,-4.1 9,-5.4 2.9,-1.1 5.7,-2.3 8.6,-3.2 1.7,-0.5 3.4,-0.8 5.2,-0.9 8,-0.3 16,0.1 23.8,2.1 3,0.8 6.2,1.6 8.8,3.3 5.7,3.6 11.1,7.7 14.8,13.6 1.9,3 3.7,5.9 4.8,9.3 0.6,2 1.9,3.7 2.3,5.9 0.7,4.1 0.7,8.2 1,12.2 0.4,5.4 -1,10.6 -1.5,15.9 0,0.2 0,0.4 -0.1,0.7 -1.5,3.9 -2.8,7.9 -4.4,11.7 -1.7,3.9 -4.9,6.2 -8.7,7.9 -1.7,0.7 -3.2,1.7 -4.8,2.6 -0.8,0.5 -1.7,0.6 -2.7,0.6 -1.4,-0.1 -2.9,0.2 -4.4,0.4 -1.3,0.1 -2.6,0.1 -3.9,0.3 -0.9,0.1 -1.8,0.2 -2.5,0.6 -1.9,1.1 -3.9,1.5 -5.9,1.5 -3.8,-0.1 -7.4,0.6 -11.1,1.1 -3.5,0.5 -6.9,0.3 -10.3,-0.3 -3.3,-0.6 -6.5,-1.1 -9.5,-2 -3.3,-1 -6.5,-2.4 -9.5,-4 -2.2,-1.3 -4.2,-3 -5.6,-5.4 C 9,81.7 8.1,80.2 7.5,78.6 7.3,78 7.3,77.5 7.2,76.5 Z" /><path
       style="fill:#803300"
       id="path1007"
       d="m 95,29 c -0.7,0.3 -1.3,0.3 -1.7,-0.6 -0.8,-1.7 -1.5,-3.4 -1.3,-5.2 0.1,-1.4 -0.4,-2.6 -1.4,-3.6 -2.4,-2.4 -4.7,-4.7 -7.2,-7 -0.7,-0.7 -1.6,-1.3 -2.5,-1.7 -1.7,-0.7 -2.7,-2.1 -4,-3.5 0.5,-0.3 0.8,-0.7 1.1,-0.7 3.5,0 6.6,1 9.2,3.2 3.1,2.6 5.1,6 6.6,9.7 0.2,0.4 0.3,0.8 0.3,1.3 0.3,2.7 0.6,5.3 0.9,8.1 z" /><path
       style="fill:#803300"
       id="path1009"
       d="M 24.1,6.2 C 24,7.6 23,7.7 22.2,7.9 17.9,9.3 14.3,12 11.1,15.1 10,16.1 9.3,17.6 8.4,18.8 8.1,19.3 7.8,19.8 7.3,20.1 7,20.3 6.4,20.5 6.2,20.3 6,20.2 5.8,19.5 5.9,19.2 6.8,17.1 7.6,15 9.5,13.5 c 2.1,-1.7 4.2,-3.4 6.4,-5 2.3,-1.6 5.1,-2.2 8.2,-2.3 z" /><path
       style="fill:#803300"
       id="path1011"
       d="m 93.9,79.1 c -0.1,0.8 -0.1,1.6 -0.2,2.3 -0.4,2.3 -1.2,4.5 -2.9,6.2 -1.6,1.6 -3.1,3.3 -4.8,4.8 -1,1 -2.2,2 -3.9,1.6 -0.4,-1.2 0.1,-2.1 1,-2.6 3,-1.5 4.6,-4.5 7,-6.6 0.4,-0.3 0.5,-1 0.7,-1.5 0.5,-1.2 0.8,-2.5 1.4,-3.7 0.2,-0.4 0.9,-0.7 1.4,-1 0.1,0.2 0.2,0.3 0.3,0.5 z" /><path
       style="fill:#552200"
       id="path1013"
       d="m 7.9,86.4 c 2,1.6 3.9,3 5.8,4.5 0.3,0.3 0.6,0.9 0.5,1.3 -0.2,0.8 -0.9,0.7 -1.4,0.4 -1.7,-1 -3.4,-1.9 -5,-3.1 C 6.4,88.4 6.5,88 7.9,86.4 Z" /><path
       style="fill:#552200"
       id="path1015"
       d="M 11.8,5.9 C 11.5,6.3 11.3,6.7 10.9,7.1 9.8,8.2 8.7,9.2 7.6,10.3 7,11 6.4,11.4 5.5,10.4 6.6,7.7 8.8,6.5 11.3,5.6 c 0.2,0.1 0.3,0.2 0.5,0.3 z" /><path
       style="fill:#552200"
       id="path1017"
       d="M 90.5,8.7 C 91,8 91.3,7.5 91.7,6.8 c 0.7,0.7 1.4,1.2 1.9,1.8 0.2,0.3 0.2,1 0.1,1.1 -0.3,0.3 -1,0.5 -1.3,0.3 C 91.7,9.8 91.2,9.2 90.5,8.7 Z" /><path
       style="fill:#552200"
       id="path1019"
       d="m 90.8,94.5 c 0.3,-1.7 1,-2.3 3.1,-2.8 0.1,1.9 -1.1,2.9 -3.1,2.8 z" /><path
       style="fill:#d45500"
       id="path1021"
       d="m 79.5,50.4 c 0.1,1.1 0.2,2.5 0.3,4 0,0.3 0.1,0.6 0.1,0.9 -0.8,4.7 -1.9,9.2 -5.7,12.5 -0.4,0.4 -0.9,0.8 -1.2,1.3 -2.1,3.4 -5.4,4.9 -8.9,6 -2.2,0.7 -4.4,1.2 -6.6,1.6 -1.3,0.2 -2.7,0.2 -3.9,-0.1 -2.5,-0.7 -4.8,-0.1 -7.1,0.6 -1.7,0.5 -3.3,1.1 -5,1.6 C 40.8,79 40,79.1 39.3,78.9 36.4,78.3 33.4,78 30.6,76.6 27.8,75.3 25.1,74 22.6,72.1 20.5,70.6 18.7,68.9 17.4,66.6 16.7,65.3 15.9,64.1 14.9,63 c -2,-2.4 -2.4,-5 -2,-8 0.2,-1.2 -0.1,-2.5 0.1,-3.7 0.2,-1.8 0.5,-3.6 1.1,-5.3 0.7,-1.8 1.8,-3.5 2.9,-5.1 1,-1.5 2.2,-2.8 3.3,-4.1 1.4,-1.8 3.1,-3.3 5.2,-4.3 3.9,-1.9 7.3,-4.5 10.6,-7.4 1,-0.9 2.1,-1.6 3.1,-2.5 2.5,-2.2 5.4,-2.5 8.6,-1.8 1.5,0.3 3,0.5 4.5,0.6 2.8,0.3 5.4,1.3 7.9,2.5 7.2,3.5 12.8,8.7 16.2,15.9 0.2,0.4 0.3,0.8 0.6,1.2 2.3,2.4 2.9,5.6 2.5,9.4 z m -2.2,0.5 C 77.4,49.6 77.4,48.8 77.5,48 77.7,46.4 77.4,45.1 76.1,44.1 75.6,43.6 75.1,43 74.8,42.3 72.4,36.6 67.7,33 62.9,29.4 62.5,29.1 62,28.9 61.5,28.7 59.4,27.9 57.4,27.2 55.3,26.5 54.1,26.1 52.9,25.4 51.6,25.1 49.5,24.6 47.3,24.3 45.1,24 c -0.9,-0.1 -2,-0.1 -2.8,0.2 -1.8,0.8 -3.8,1.5 -5.2,2.8 -2.1,1.8 -4.2,3.3 -6.4,4.9 -1.6,1.2 -3.1,2.4 -5.1,3 -0.7,0.3 -1.4,0.8 -2,1.3 -2.8,2.4 -5.3,5.2 -7.3,8.4 -1.4,2.3 -2.3,4.7 -1.9,7.5 0.1,0.6 -0.1,1.3 -0.2,2 -0.1,0.6 -0.3,1.3 -0.2,1.9 1,4.8 4,8.4 7,12 0,0.1 0.1,0.1 0.2,0.1 4.2,3.2 9,5.1 14.1,6.3 3.8,0.9 7.6,1.4 11.4,-0.4 2.4,-1.1 5.1,-1.2 7.8,-0.7 1.3,0.3 2.6,0.2 3.9,0 3.2,-0.3 6.2,-1.5 9.2,-2.7 1.6,-0.7 2.9,-1.6 4,-3 0.8,-1 1.6,-2.1 2.6,-3 2.4,-2.4 3.1,-5.5 3.4,-8.6 0.1,-1.8 -0.2,-3.7 -0.3,-5.1 z" /><path
       style="fill:#ff6600"
       id="path1023"
       d="m 71.5,49.5 c -0.3,1.6 -0.7,2.8 -0.7,3.9 0.1,3.1 -0.9,5.9 -2.4,8.5 -0.3,0.6 -0.8,1.1 -1.3,1.5 -2.7,2 -5.5,3.8 -8.8,4.8 -0.9,0.3 -1.6,0.3 -2.5,-0.3 -1.3,-1 -2.7,-1 -4.3,-1 -3.2,0.1 -5.9,1.5 -8.9,2.2 -2.7,0.6 -5.1,0.2 -7.4,-1.1 -0.8,-0.4 -1.5,-0.9 -2.3,-1.2 -3.3,-1.3 -5.4,-3.8 -7.2,-6.7 -0.4,-0.6 -0.8,-1.2 -1.2,-1.9 -2.2,-3.4 -2.4,-6.9 -1.2,-10.7 0.4,-1 0.7,-2.1 1,-3.1 0.7,-3 3,-4.8 5.3,-6.4 1.5,-1 3.3,-1.6 5,-2.2 2,-0.7 3.6,-1.7 5.2,-3.1 3,-2.7 6.8,-3.7 10.8,-3.7 4.3,0 7.7,2.1 10.8,4.7 2.4,2 4.4,4.5 6.6,6.8 1.2,1.3 2.1,2.8 2.4,4.6 0.3,1.7 0.8,3.2 1.1,4.4 z M 49.4,32.7 c -3.3,0.1 -6.5,0.8 -9,3 -2.3,2 -4.9,3.2 -7.6,4.2 -3.4,1.2 -5.9,3.4 -7.1,6.9 -0.1,0.3 -0.2,0.6 -0.4,0.8 -1.2,2 -1.3,4 -0.7,6.3 1.5,5.7 4.4,10 10,12.1 0.7,0.3 1.4,0.4 2.1,0.7 1.9,0.8 3.8,0.9 5.8,0.5 3.2,-0.6 6.5,-1.3 9.7,-1.7 1,-0.1 2.1,0 3,0.4 1.5,0.6 2.9,0.5 4.3,0 0.8,-0.3 1.7,-0.6 2.4,-1.1 1.8,-1.2 3.9,-2.3 5.2,-3.9 C 69.5,58 69.2,54.2 69.4,50.6 69.5,49.2 69,47.7 68.6,46.3 68.3,45.4 68,44.4 67.4,43.8 64.9,40.9 62.2,38.2 59.1,36 56.1,33.8 53,32.4 49.4,32.7 Z" /><path
       style="fill:#ff7f2a"
       id="path1025"
       d="m 49.6,61.5 c -1.1,-0.2 -2.5,0.3 -3.9,1 -2.1,1.1 -4.5,1.3 -6.9,1 -5.8,-0.7 -11.4,-8.8 -7,-15.2 0.7,-1 1.3,-1.9 1.9,-3 0.9,-1.8 2.4,-2.7 4.4,-2.7 1.9,0 3.3,-1 4.7,-2.2 0.5,-0.4 1,-0.9 1.5,-1.3 2.6,-2.6 5.8,-2.7 9.2,-2.1 0.3,0.1 0.6,0.1 0.8,0.3 2,1.6 4.2,3 6,4.8 1.5,1.5 2.4,3.4 2.3,5.8 -0.1,1.9 0.3,3.8 -0.1,5.7 -0.6,2.9 -2,5 -4.8,6.3 -2.6,1 -4.9,1.8 -8.1,1.6 z M 51,59.1 c 1.2,-0.2 2.5,-0.3 3.6,-0.7 3,-1.2 6.2,-2.3 6.2,-6.4 0,-1.6 -0.1,-3.2 -0.5,-4.7 -0.3,-1.1 -1,-2.3 -1.9,-3.1 -1,-1.1 -2.3,-2 -3.6,-2.9 -0.6,-0.4 -1.3,-0.7 -2,-0.8 -3,-0.6 -5.7,-0.2 -8,2 -1.6,1.5 -3.6,2.6 -5.8,2.9 -2.1,0.3 -3.5,1.5 -4.9,3 -2.4,2.7 -1.6,7.6 0.4,9.7 3.2,3.4 6.9,3.3 10.1,2 2.2,-0.9 4.1,-1.7 6.4,-1 z" /><path
       style="fill:#ff9955"
       id="path1027"
       d="m 54.8,47.1 c 0.2,2.4 -0.5,4.2 -1.6,5.9 -0.8,1.3 -2,2 -3.5,1.7 -1.3,-0.3 -2.7,-0.8 -3.9,-1.4 -0.6,-0.3 -1,-1 -1.3,-1.7 -0.9,-2 -0.2,-3.7 1.1,-5.2 1.3,-1.5 3,-1.9 4.8,-1.3 1.5,0.5 2.9,1.3 4.4,2 z m -1.3,2.1 c -1.7,-1.3 -3.5,-2.3 -5.7,-2 -1.3,0.2 -2,1 -2.1,2.2 -0.1,1.2 0.4,2.1 1.6,2.5 3,1.1 4.8,1.1 6.2,-2.7 z" /></g></svg>
